<svg width="202" height="14" viewBox="0 0 202 14" fill="none" xmlns="http://www.w3.org/2000/svg">
<path d="M0.276794 6.69824C0.276794 6.10059 0.352966 5.52637 0.50531 4.97559C0.663513 4.4248 0.88324 3.90918 1.16449 3.42871C1.44574 2.94824 1.78265 2.51172 2.17523 2.11914C2.56781 1.72656 3.00433 1.38965 3.4848 1.1084C3.96527 0.827148 4.4809 0.610352 5.03168 0.458008C5.58832 0.299805 6.16547 0.220703 6.76312 0.220703C7.36078 0.220703 7.935 0.299805 8.48578 0.458008C9.03656 0.610352 9.55219 0.827148 10.0327 1.1084C10.5131 1.38965 10.9496 1.72656 11.3422 2.11914C11.7348 2.51172 12.0717 2.94824 12.353 3.42871C12.6342 3.90918 12.851 4.4248 13.0034 4.97559C13.1616 5.52637 13.2407 6.10059 13.2407 6.69824C13.2407 7.2959 13.1616 7.87305 13.0034 8.42969C12.851 8.98047 12.6342 9.49609 12.353 9.97656C12.0717 10.4512 11.7348 10.8877 11.3422 11.2861C10.9496 11.6787 10.5131 12.0156 10.0327 12.2969C9.55219 12.5723 9.03656 12.7891 8.48578 12.9473C7.935 13.0996 7.36078 13.1758 6.76312 13.1758C6.16547 13.1758 5.58832 13.0996 5.03168 12.9473C4.4809 12.7891 3.96527 12.5723 3.4848 12.2969C3.00433 12.0156 2.56781 11.6787 2.17523 11.2861C1.78265 10.8877 1.44574 10.4512 1.16449 9.97656C0.88324 9.49609 0.663513 8.98047 0.50531 8.42969C0.352966 7.87305 0.276794 7.2959 0.276794 6.69824ZM1.28754 6.69824C1.28754 7.46582 1.42816 8.18652 1.70941 8.86035C1.99066 9.53418 2.37738 10.123 2.86957 10.627C3.36176 11.125 3.9389 11.5205 4.60101 11.8135C5.26898 12.1006 5.98969 12.2441 6.76312 12.2441C7.5307 12.2441 8.24554 12.1006 8.90765 11.8135C9.57562 11.5205 10.1557 11.125 10.6479 10.627C11.1401 10.123 11.5268 9.53418 11.808 8.86035C12.0893 8.18652 12.2299 7.46582 12.2299 6.69824C12.2299 5.93066 12.0893 5.20996 11.808 4.53613C11.5268 3.8623 11.1401 3.27637 10.6479 2.77832C10.1557 2.27441 9.57562 1.87891 8.90765 1.5918C8.24554 1.29883 7.5307 1.15234 6.76312 1.15234C5.98969 1.15234 5.26898 1.29883 4.60101 1.5918C3.9389 1.87891 3.36176 2.27441 2.86957 2.77832C2.37738 3.27637 1.99066 3.8623 1.70941 4.53613C1.42816 5.20996 1.28754 5.93066 1.28754 6.69824ZM9.04828 8.7373C9.04828 9.01855 8.99554 9.28223 8.89008 9.52832C8.78461 9.76855 8.63812 9.97949 8.45062 10.1611C8.26898 10.3428 8.05511 10.4863 7.80902 10.5918C7.56879 10.6973 7.30804 10.75 7.02679 10.75H6.49066C6.20941 10.75 5.94574 10.6973 5.69965 10.5918C5.45941 10.4863 5.24847 10.3428 5.06683 10.1611C4.88519 9.97949 4.74164 9.76855 4.63617 9.52832C4.5307 9.28223 4.47797 9.01855 4.47797 8.7373V4.66797C4.47797 4.38672 4.5307 4.12598 4.63617 3.88574C4.74164 3.63965 4.88519 3.42578 5.06683 3.24414C5.24847 3.05664 5.45941 2.91016 5.69965 2.80469C5.94574 2.69922 6.20941 2.64648 6.49066 2.64648H7.02679C7.30804 2.64648 7.56879 2.69922 7.80902 2.80469C8.05511 2.91016 8.26898 3.05664 8.45062 3.24414C8.63812 3.42578 8.78461 3.63965 8.89008 3.88574C8.99554 4.12598 9.04828 4.38672 9.04828 4.66797V5.11621L8.03754 5.27441V4.66797C8.03754 4.52148 8.00824 4.38672 7.94965 4.26367C7.89691 4.13477 7.82367 4.02344 7.72992 3.92969C7.63617 3.83594 7.52484 3.7627 7.39594 3.70996C7.27289 3.65137 7.13812 3.62207 6.99164 3.62207H6.52582C6.38519 3.62207 6.25043 3.65137 6.12152 3.70996C5.99261 3.7627 5.88129 3.83594 5.78754 3.92969C5.69379 4.02344 5.61761 4.13477 5.55902 4.26367C5.50629 4.38672 5.47992 4.52148 5.47992 4.66797V8.7373C5.47992 8.87793 5.50629 9.0127 5.55902 9.1416C5.61761 9.26465 5.69379 9.37305 5.78754 9.4668C5.88129 9.56055 5.99261 9.63672 6.12152 9.69531C6.25043 9.74805 6.38519 9.77441 6.52582 9.77441H6.99164C7.13812 9.77441 7.27289 9.74805 7.39594 9.69531C7.52484 9.63672 7.63617 9.56055 7.72992 9.4668C7.82367 9.37305 7.89691 9.26465 7.94965 9.1416C8.00824 9.0127 8.03754 8.87793 8.03754 8.7373V8.12207L9.04828 8.28027V8.7373ZM26.3229 10.7148C26.3229 11.0781 26.2497 11.4121 26.1032 11.7168C25.9567 12.0156 25.7575 12.2734 25.5055 12.4902C25.2536 12.707 24.9606 12.877 24.6266 13C24.2985 13.1172 23.9528 13.1758 23.5895 13.1758H22.8688C22.5055 13.1758 22.1569 13.1084 21.8229 12.9736C21.4948 12.833 21.2048 12.6426 20.9528 12.4023C20.7067 12.1621 20.5075 11.8809 20.3552 11.5586C20.2087 11.2363 20.1354 10.8936 20.1354 10.5303V10.1699L21.2165 9.99414V10.5918C21.2165 10.8086 21.2604 11.0137 21.3483 11.207C21.4421 11.3945 21.5651 11.5586 21.7175 11.6992C21.8698 11.8398 22.0456 11.9512 22.2448 12.0332C22.444 12.1152 22.652 12.1562 22.8688 12.1562H23.5895C23.8063 12.1562 24.0143 12.124 24.2136 12.0596C24.4128 11.9951 24.5886 11.9043 24.7409 11.7871C24.8991 11.6641 25.0221 11.5176 25.11 11.3477C25.2038 11.1777 25.2507 10.9844 25.2507 10.7676C25.2507 10.4453 25.1803 10.1816 25.0397 9.97656C24.8991 9.77148 24.7116 9.60156 24.4772 9.4668C24.2487 9.32617 23.985 9.21191 23.6862 9.12402C23.3932 9.03027 23.0915 8.93945 22.7809 8.85156C22.4704 8.75781 22.1657 8.65234 21.8669 8.53516C21.5739 8.41797 21.3102 8.26562 21.0759 8.07812C20.8473 7.88477 20.6628 7.64453 20.5221 7.35742C20.3815 7.07031 20.3112 6.71289 20.3112 6.28516C20.3112 5.92188 20.3815 5.59082 20.5221 5.29199C20.6628 4.9873 20.8532 4.72656 21.0934 4.50977C21.3337 4.29297 21.612 4.12598 21.9284 4.00879C22.2507 3.88574 22.5934 3.82422 22.9567 3.82422H23.5895C23.9528 3.82422 24.2956 3.89453 24.6178 4.03516C24.9401 4.16992 25.2214 4.35742 25.4616 4.59766C25.7018 4.83789 25.8893 5.11914 26.0241 5.44141C26.1647 5.76367 26.235 6.10645 26.235 6.46973V6.50488L25.154 6.68066V6.4082C25.154 6.19141 25.113 5.98926 25.0309 5.80176C24.9489 5.6084 24.8376 5.44141 24.697 5.30078C24.5563 5.16016 24.3893 5.04883 24.196 4.9668C24.0085 4.88477 23.8063 4.84375 23.5895 4.84375H22.9567C22.7399 4.84375 22.5348 4.87598 22.3415 4.94043C22.154 5.00488 21.9899 5.09863 21.8493 5.22168C21.7087 5.33887 21.5973 5.48242 21.5153 5.65234C21.4333 5.82227 21.3923 6.01562 21.3923 6.23242C21.3923 6.54297 21.4626 6.79785 21.6032 6.99707C21.7438 7.19043 21.9284 7.35449 22.1569 7.48926C22.3913 7.62402 22.655 7.73828 22.9479 7.83203C23.2468 7.91992 23.5485 8.01367 23.8532 8.11328C24.1637 8.20703 24.4655 8.31543 24.7585 8.43848C25.0573 8.56152 25.321 8.71973 25.5495 8.91309C25.7839 9.10645 25.9714 9.34961 26.112 9.64258C26.2526 9.92969 26.3229 10.2871 26.3229 10.7148ZM34.4285 13L33.8309 12.1035C33.5848 12.4258 33.2771 12.6865 32.908 12.8857C32.5389 13.0791 32.1346 13.1758 31.6951 13.1758H31.4227C31.0594 13.1758 30.7166 13.1084 30.3943 12.9736C30.0721 12.833 29.7908 12.6426 29.5506 12.4023C29.3103 12.1621 29.1199 11.8809 28.9793 11.5586C28.8445 11.2363 28.7771 10.8936 28.7771 10.5303V10.4424C28.7771 10.0791 28.8445 9.73633 28.9793 9.41406C29.1199 9.0918 29.3103 8.81055 29.5506 8.57031C29.7908 8.33008 30.0721 8.14258 30.3943 8.00781C30.7166 7.86719 31.0594 7.79688 31.4227 7.79688H33.7078V6.4082C33.7078 6.19141 33.6668 5.98926 33.5848 5.80176C33.5027 5.6084 33.3914 5.44141 33.2508 5.30078C33.1102 5.16016 32.9432 5.04883 32.7498 4.9668C32.5623 4.88477 32.3602 4.84375 32.1434 4.84375H31.5105C31.2937 4.84375 31.0887 4.88477 30.8953 4.9668C30.7078 5.04883 30.5437 5.16016 30.4031 5.30078C30.2625 5.44141 30.1512 5.6084 30.0691 5.80176C29.9871 5.98926 29.9461 6.19141 29.9461 6.4082V6.7334L28.865 6.55762V6.46973C28.865 6.10645 28.9324 5.76367 29.0672 5.44141C29.2078 5.11914 29.3982 4.83789 29.6385 4.59766C29.8787 4.35742 30.16 4.16992 30.4822 4.03516C30.8045 3.89453 31.1473 3.82422 31.5105 3.82422H32.1434C32.5066 3.82422 32.8494 3.89453 33.1717 4.03516C33.4939 4.16992 33.7752 4.35742 34.0154 4.59766C34.2557 4.83789 34.4432 5.11914 34.5779 5.44141C34.7186 5.76367 34.7889 6.10645 34.7889 6.46973V13H34.4285ZM33.7078 8.64062H31.4227C31.2059 8.64062 31.0008 8.68164 30.8074 8.76367C30.6199 8.8457 30.4559 8.95996 30.3152 9.10645C30.1746 9.24707 30.0633 9.41406 29.9812 9.60742C29.8992 9.79492 29.8582 9.99707 29.8582 10.2139V10.5918C29.8582 10.8086 29.8992 11.0137 29.9812 11.207C30.0633 11.3945 30.1746 11.5586 30.3152 11.6992C30.4559 11.8398 30.6199 11.9512 30.8074 12.0332C31.0008 12.1152 31.2059 12.1562 31.4227 12.1562H32.1434C32.3602 12.1562 32.5623 12.1152 32.7498 12.0332C32.9432 11.9512 33.1102 11.8398 33.2508 11.6992C33.3914 11.5586 33.5027 11.3945 33.5848 11.207C33.6668 11.0137 33.7078 10.8086 33.7078 10.5918V8.64062ZM37.6034 1.83789V0.396484H38.8603V1.83789H37.6034ZM37.6913 13V4H38.7724V13H37.6913ZM46.6143 13V6.4082C46.6143 6.19141 46.5733 5.98926 46.4912 5.80176C46.4092 5.6084 46.2979 5.44141 46.1573 5.30078C46.0166 5.16016 45.8496 5.04883 45.6563 4.9668C45.4688 4.88477 45.2666 4.84375 45.0498 4.84375H44.3291C44.1123 4.84375 43.9073 4.88477 43.7139 4.9668C43.5264 5.04883 43.3623 5.16016 43.2217 5.30078C43.0811 5.44141 42.9698 5.6084 42.8877 5.80176C42.8057 5.98926 42.7647 6.19141 42.7647 6.4082V13H41.6836V4H42.044L42.6329 4.91406C42.8789 4.58008 43.1866 4.31641 43.5557 4.12305C43.9307 3.92383 44.3379 3.82422 44.7774 3.82422H45.0498C45.4131 3.82422 45.7559 3.89453 46.0782 4.03516C46.4004 4.16992 46.6817 4.35742 46.9219 4.59766C47.1621 4.83789 47.3496 5.11914 47.4844 5.44141C47.625 5.76367 47.6954 6.10645 47.6954 6.46973V13H46.6143ZM53.5158 13C53.1877 13 52.8771 12.9385 52.5841 12.8154C52.297 12.6924 52.0451 12.5225 51.8283 12.3057C51.6173 12.0889 51.4474 11.8369 51.3185 11.5498C51.1955 11.2627 51.1339 10.9551 51.1339 10.627V5.02832H49.5168V4H51.1339V1.83789L52.215 1.66211V4H54.5002V5.02832H52.215V10.6797C52.215 10.8613 52.2472 11.0312 52.3117 11.1895C52.382 11.3418 52.4757 11.4766 52.5929 11.5938C52.7101 11.7109 52.8478 11.8047 53.006 11.875C53.1642 11.9395 53.3341 11.9717 53.5158 11.9717H54.5002V13H53.5158ZM62.887 10.5303C62.887 10.8936 62.8167 11.2363 62.6761 11.5586C62.5413 11.8809 62.3538 12.1621 62.1136 12.4023C61.8733 12.6426 61.5921 12.833 61.2698 12.9736C60.9475 13.1084 60.6048 13.1758 60.2415 13.1758H59.5208C59.1575 13.1758 58.8147 13.1084 58.4925 12.9736C58.1702 12.833 57.8889 12.6426 57.6487 12.4023C57.4085 12.1621 57.218 11.8809 57.0774 11.5586C56.9427 11.2363 56.8753 10.8936 56.8753 10.5303V6.46973C56.8753 6.10645 56.9427 5.76367 57.0774 5.44141C57.218 5.11914 57.4085 4.83789 57.6487 4.59766C57.8889 4.35742 58.1702 4.16992 58.4925 4.03516C58.8147 3.89453 59.1575 3.82422 59.5208 3.82422H60.2415C60.6048 3.82422 60.9475 3.89453 61.2698 4.03516C61.5921 4.16992 61.8733 4.35742 62.1136 4.59766C62.3538 4.83789 62.5413 5.11914 62.6761 5.44141C62.8167 5.76367 62.887 6.10645 62.887 6.46973V8.58789H57.9563V10.5918C57.9563 10.8086 57.9973 11.0137 58.0794 11.207C58.1614 11.3945 58.2727 11.5586 58.4134 11.6992C58.554 11.8398 58.718 11.9512 58.9055 12.0332C59.0989 12.1152 59.304 12.1562 59.5208 12.1562H60.2415C60.4583 12.1562 60.6604 12.1152 60.8479 12.0332C61.0413 11.9512 61.2083 11.8398 61.3489 11.6992C61.4895 11.5586 61.6009 11.3945 61.6829 11.207C61.7649 11.0137 61.8059 10.8086 61.8059 10.5918V9.99414L62.887 10.1699V10.5303ZM61.8059 6.4082C61.8059 6.19141 61.7649 5.98926 61.6829 5.80176C61.6009 5.6084 61.4895 5.44141 61.3489 5.30078C61.2083 5.16016 61.0413 5.04883 60.8479 4.9668C60.6604 4.88477 60.4583 4.84375 60.2415 4.84375H59.5208C59.304 4.84375 59.0989 4.88477 58.9055 4.9668C58.718 5.04883 58.554 5.16016 58.4134 5.30078C58.2727 5.44141 58.1614 5.6084 58.0794 5.80176C57.9973 5.98926 57.9563 6.19141 57.9563 6.4082V7.74414H61.8059V6.4082ZM79.4585 13V6.4082C79.4585 6.19141 79.4175 5.98926 79.3355 5.80176C79.2534 5.6084 79.1421 5.44141 79.0015 5.30078C78.8609 5.16016 78.6939 5.04883 78.5005 4.9668C78.313 4.88477 78.1109 4.84375 77.8941 4.84375H77.3579C77.1411 4.84375 76.9361 4.88477 76.7427 4.9668C76.5552 5.04883 76.3882 5.16016 76.2417 5.30078C76.1011 5.44141 75.9898 5.6084 75.9077 5.80176C75.8257 5.98926 75.7847 6.19141 75.7847 6.4082V13H74.7124V6.4082C74.7124 6.19141 74.6714 5.98926 74.5894 5.80176C74.5073 5.6084 74.3931 5.44141 74.2466 5.30078C74.106 5.16016 73.939 5.04883 73.7456 4.9668C73.5581 4.88477 73.356 4.84375 73.1392 4.84375H72.603C72.3862 4.84375 72.1812 4.88477 71.9878 4.9668C71.8003 5.04883 71.6362 5.16016 71.4956 5.30078C71.355 5.44141 71.2437 5.6084 71.1616 5.80176C71.0796 5.98926 71.0386 6.19141 71.0386 6.4082V13H69.9575V4H70.3179L70.9068 4.91406C71.1528 4.58008 71.4605 4.31641 71.8296 4.12305C72.2046 3.92383 72.6118 3.82422 73.0513 3.82422H73.1392C73.6489 3.82422 74.1089 3.9502 74.5191 4.20215C74.9292 4.4541 75.2456 4.78809 75.4683 5.2041C75.5796 4.99902 75.7173 4.81152 75.8814 4.6416C76.0454 4.47168 76.2271 4.32812 76.4263 4.21094C76.6255 4.08789 76.8423 3.99414 77.0767 3.92969C77.3111 3.85938 77.5542 3.82422 77.8062 3.82422H77.8941C78.2573 3.82422 78.6001 3.89453 78.9224 4.03516C79.2446 4.16992 79.5259 4.35742 79.7661 4.59766C80.0064 4.83789 80.1939 5.11914 80.3286 5.44141C80.4693 5.76367 80.5396 6.10645 80.5396 6.46973V13H79.4585ZM88.733 13L88.1354 12.1035C87.8893 12.4258 87.5817 12.6865 87.2125 12.8857C86.8434 13.0791 86.4391 13.1758 85.9996 13.1758H85.7272C85.3639 13.1758 85.0211 13.1084 84.6989 12.9736C84.3766 12.833 84.0954 12.6426 83.8551 12.4023C83.6149 12.1621 83.4245 11.8809 83.2838 11.5586C83.1491 11.2363 83.0817 10.8936 83.0817 10.5303V10.4424C83.0817 10.0791 83.1491 9.73633 83.2838 9.41406C83.4245 9.0918 83.6149 8.81055 83.8551 8.57031C84.0954 8.33008 84.3766 8.14258 84.6989 8.00781C85.0211 7.86719 85.3639 7.79688 85.7272 7.79688H88.0123V6.4082C88.0123 6.19141 87.9713 5.98926 87.8893 5.80176C87.8073 5.6084 87.6959 5.44141 87.5553 5.30078C87.4147 5.16016 87.2477 5.04883 87.0543 4.9668C86.8668 4.88477 86.6647 4.84375 86.4479 4.84375H85.8151C85.5983 4.84375 85.3932 4.88477 85.1998 4.9668C85.0123 5.04883 84.8483 5.16016 84.7077 5.30078C84.567 5.44141 84.4557 5.6084 84.3737 5.80176C84.2916 5.98926 84.2506 6.19141 84.2506 6.4082V6.7334L83.1696 6.55762V6.46973C83.1696 6.10645 83.237 5.76367 83.3717 5.44141C83.5123 5.11914 83.7028 4.83789 83.943 4.59766C84.1832 4.35742 84.4645 4.16992 84.7868 4.03516C85.109 3.89453 85.4518 3.82422 85.8151 3.82422H86.4479C86.8112 3.82422 87.1539 3.89453 87.4762 4.03516C87.7985 4.16992 88.0797 4.35742 88.32 4.59766C88.5602 4.83789 88.7477 5.11914 88.8825 5.44141C89.0231 5.76367 89.0934 6.10645 89.0934 6.46973V13H88.733ZM88.0123 8.64062H85.7272C85.5104 8.64062 85.3053 8.68164 85.112 8.76367C84.9245 8.8457 84.7604 8.95996 84.6198 9.10645C84.4791 9.24707 84.3678 9.41406 84.2858 9.60742C84.2038 9.79492 84.1627 9.99707 84.1627 10.2139V10.5918C84.1627 10.8086 84.2038 11.0137 84.2858 11.207C84.3678 11.3945 84.4791 11.5586 84.6198 11.6992C84.7604 11.8398 84.9245 11.9512 85.112 12.0332C85.3053 12.1152 85.5104 12.1562 85.7272 12.1562H86.4479C86.6647 12.1562 86.8668 12.1152 87.0543 12.0332C87.2477 11.9512 87.4147 11.8398 87.5553 11.6992C87.6959 11.5586 87.8073 11.3945 87.8893 11.207C87.9713 11.0137 88.0123 10.8086 88.0123 10.5918V8.64062ZM94.281 5.02832C94.0642 5.02832 93.8591 5.06934 93.6658 5.15137C93.4783 5.2334 93.3142 5.34473 93.1736 5.48535C93.033 5.62598 92.9216 5.79297 92.8396 5.98633C92.7576 6.17383 92.7166 6.37598 92.7166 6.59277V13H91.6355V4H91.9959L92.5847 4.91406C92.8308 4.58008 93.1384 4.31641 93.5076 4.12305C93.8826 3.92383 94.2898 3.82422 94.7293 3.82422H95.3621V5.02832H94.281ZM97.4559 1.83789V0.396484H98.7128V1.83789H97.4559ZM97.5438 13V4H98.6249V13H97.5438ZM107.548 10.5303C107.548 10.8936 107.478 11.2363 107.337 11.5586C107.202 11.8809 107.015 12.1621 106.774 12.4023C106.534 12.6426 106.253 12.833 105.931 12.9736C105.608 13.1084 105.266 13.1758 104.902 13.1758H104.182C103.818 13.1758 103.476 13.1084 103.153 12.9736C102.831 12.833 102.55 12.6426 102.31 12.4023C102.069 12.1621 101.879 11.8809 101.738 11.5586C101.604 11.2363 101.536 10.8936 101.536 10.5303V6.46973C101.536 6.10645 101.604 5.76367 101.738 5.44141C101.879 5.11914 102.069 4.83789 102.31 4.59766C102.55 4.35742 102.831 4.16992 103.153 4.03516C103.476 3.89453 103.818 3.82422 104.182 3.82422H104.902C105.266 3.82422 105.608 3.89453 105.931 4.03516C106.253 4.16992 106.534 4.35742 106.774 4.59766C107.015 4.83789 107.202 5.11914 107.337 5.44141C107.478 5.76367 107.548 6.10645 107.548 6.46973V8.58789H102.617V10.5918C102.617 10.8086 102.658 11.0137 102.74 11.207C102.822 11.3945 102.934 11.5586 103.074 11.6992C103.215 11.8398 103.379 11.9512 103.566 12.0332C103.76 12.1152 103.965 12.1562 104.182 12.1562H104.902C105.119 12.1562 105.321 12.1152 105.509 12.0332C105.702 11.9512 105.869 11.8398 106.01 11.6992C106.15 11.5586 106.262 11.3945 106.344 11.207C106.426 11.0137 106.467 10.8086 106.467 10.5918V9.99414L107.548 10.1699V10.5303ZM106.467 6.4082C106.467 6.19141 106.426 5.98926 106.344 5.80176C106.262 5.6084 106.15 5.44141 106.01 5.30078C105.869 5.16016 105.702 5.04883 105.509 4.9668C105.321 4.88477 105.119 4.84375 104.902 4.84375H104.182C103.965 4.84375 103.76 4.88477 103.566 4.9668C103.379 5.04883 103.215 5.16016 103.074 5.30078C102.934 5.44141 102.822 5.6084 102.74 5.80176C102.658 5.98926 102.617 6.19141 102.617 6.4082V7.74414H106.467V6.4082ZM117.897 13C117.569 13 117.258 12.9385 116.965 12.8154C116.678 12.6924 116.426 12.5225 116.209 12.3057C115.998 12.0889 115.828 11.8369 115.699 11.5498C115.576 11.2627 115.515 10.9551 115.515 10.627V5.02832H113.898V4H115.515V1.83789L116.596 1.66211V4H118.881V5.02832H116.596V10.6797C116.596 10.8613 116.628 11.0312 116.693 11.1895C116.763 11.3418 116.857 11.4766 116.974 11.5938C117.091 11.7109 117.229 11.8047 117.387 11.875C117.545 11.9395 117.715 11.9717 117.897 11.9717H118.881V13H117.897ZM127.268 10.5303C127.268 10.8936 127.198 11.2363 127.057 11.5586C126.922 11.8809 126.735 12.1621 126.494 12.4023C126.254 12.6426 125.973 12.833 125.651 12.9736C125.328 13.1084 124.986 13.1758 124.622 13.1758H123.902C123.538 13.1758 123.196 13.1084 122.873 12.9736C122.551 12.833 122.27 12.6426 122.03 12.4023C121.789 12.1621 121.599 11.8809 121.458 11.5586C121.324 11.2363 121.256 10.8936 121.256 10.5303V6.46973C121.256 6.10645 121.324 5.76367 121.458 5.44141C121.599 5.11914 121.789 4.83789 122.03 4.59766C122.27 4.35742 122.551 4.16992 122.873 4.03516C123.196 3.89453 123.538 3.82422 123.902 3.82422H124.622C124.986 3.82422 125.328 3.89453 125.651 4.03516C125.973 4.16992 126.254 4.35742 126.494 4.59766C126.735 4.83789 126.922 5.11914 127.057 5.44141C127.198 5.76367 127.268 6.10645 127.268 6.46973V8.58789H122.337V10.5918C122.337 10.8086 122.378 11.0137 122.46 11.207C122.542 11.3945 122.654 11.5586 122.794 11.6992C122.935 11.8398 123.099 11.9512 123.286 12.0332C123.48 12.1152 123.685 12.1562 123.902 12.1562H124.622C124.839 12.1562 125.041 12.1152 125.229 12.0332C125.422 11.9512 125.589 11.8398 125.73 11.6992C125.87 11.5586 125.982 11.3945 126.064 11.207C126.146 11.0137 126.187 10.8086 126.187 10.5918V9.99414L127.268 10.1699V10.5303ZM126.187 6.4082C126.187 6.19141 126.146 5.98926 126.064 5.80176C125.982 5.6084 125.87 5.44141 125.73 5.30078C125.589 5.16016 125.422 5.04883 125.229 4.9668C125.041 4.88477 124.839 4.84375 124.622 4.84375H123.902C123.685 4.84375 123.48 4.88477 123.286 4.9668C123.099 5.04883 122.935 5.16016 122.794 5.30078C122.654 5.44141 122.542 5.6084 122.46 5.80176C122.378 5.98926 122.337 6.19141 122.337 6.4082V7.74414H126.187V6.4082ZM134.468 13L132.543 9.5459L130.619 13H129.45L131.972 8.5L129.45 4H130.619L132.543 7.4541L134.468 4H135.637L133.124 8.5L135.637 13H134.468ZM141.097 13C140.769 13 140.459 12.9385 140.166 12.8154C139.879 12.6924 139.627 12.5225 139.41 12.3057C139.199 12.0889 139.029 11.8369 138.9 11.5498C138.777 11.2627 138.715 10.9551 138.715 10.627V5.02832H137.098V4H138.715V1.83789L139.796 1.66211V4H142.082V5.02832H139.796V10.6797C139.796 10.8613 139.829 11.0312 139.893 11.1895C139.963 11.3418 140.057 11.4766 140.174 11.5938C140.292 11.7109 140.429 11.8047 140.587 11.875C140.746 11.9395 140.916 11.9717 141.097 11.9717H142.082V13H141.097ZM144.729 1.83789V0.396484H145.986V1.83789H144.729ZM144.817 13V4H145.898V13H144.817ZM149.17 13V0.396484H150.251V13H149.17ZM159.174 10.5303C159.174 10.8936 159.103 11.2363 158.963 11.5586C158.828 11.8809 158.641 12.1621 158.4 12.4023C158.16 12.6426 157.879 12.833 157.557 12.9736C157.234 13.1084 156.892 13.1758 156.528 13.1758H155.808C155.444 13.1758 155.102 13.1084 154.779 12.9736C154.457 12.833 154.176 12.6426 153.936 12.4023C153.695 12.1621 153.505 11.8809 153.364 11.5586C153.229 11.2363 153.162 10.8936 153.162 10.5303V6.46973C153.162 6.10645 153.229 5.76367 153.364 5.44141C153.505 5.11914 153.695 4.83789 153.936 4.59766C154.176 4.35742 154.457 4.16992 154.779 4.03516C155.102 3.89453 155.444 3.82422 155.808 3.82422H156.528C156.892 3.82422 157.234 3.89453 157.557 4.03516C157.879 4.16992 158.16 4.35742 158.4 4.59766C158.641 4.83789 158.828 5.11914 158.963 5.44141C159.103 5.76367 159.174 6.10645 159.174 6.46973V8.58789H154.243V10.5918C154.243 10.8086 154.284 11.0137 154.366 11.207C154.448 11.3945 154.56 11.5586 154.7 11.6992C154.841 11.8398 155.005 11.9512 155.192 12.0332C155.386 12.1152 155.591 12.1562 155.808 12.1562H156.528C156.745 12.1562 156.947 12.1152 157.135 12.0332C157.328 11.9512 157.495 11.8398 157.636 11.6992C157.776 11.5586 157.888 11.3945 157.97 11.207C158.052 11.0137 158.093 10.8086 158.093 10.5918V9.99414L159.174 10.1699V10.5303ZM158.093 6.4082C158.093 6.19141 158.052 5.98926 157.97 5.80176C157.888 5.6084 157.776 5.44141 157.636 5.30078C157.495 5.16016 157.328 5.04883 157.135 4.9668C156.947 4.88477 156.745 4.84375 156.528 4.84375H155.808C155.591 4.84375 155.386 4.88477 155.192 4.9668C155.005 5.04883 154.841 5.16016 154.7 5.30078C154.56 5.44141 154.448 5.6084 154.366 5.80176C154.284 5.98926 154.243 6.19141 154.243 6.4082V7.74414H158.093V6.4082ZM169.303 1.30176C169.022 1.30176 168.758 1.35449 168.512 1.45996C168.272 1.56543 168.061 1.70898 167.879 1.89062C167.697 2.07227 167.554 2.28613 167.448 2.53223C167.343 2.77246 167.29 3.0332 167.29 3.31445V3.82422L166.156 3.63965V3.31445C166.156 2.88672 166.236 2.48535 166.394 2.11035C166.558 1.73535 166.78 1.40723 167.062 1.12598C167.343 0.844727 167.671 0.625 168.046 0.466797C168.421 0.302734 168.822 0.220703 169.25 0.220703H169.786C170.214 0.220703 170.615 0.296875 170.99 0.449219C171.371 0.601562 171.702 0.821289 171.984 1.1084C172.265 1.39551 172.485 1.74121 172.643 2.14551C172.807 2.54395 172.889 2.99512 172.889 3.49902C172.889 3.99707 172.813 4.49805 172.66 5.00195C172.514 5.50586 172.318 6.00098 172.071 6.4873C171.831 6.97363 171.553 7.44531 171.237 7.90234C170.926 8.35938 170.607 8.79004 170.279 9.19434C169.511 10.1377 168.641 11.0459 167.668 11.9189H172.977V13H165.884V12.1035C166.98 11.2012 167.958 10.2666 168.82 9.2998C169.189 8.88379 169.549 8.44141 169.901 7.97266C170.252 7.50391 170.566 7.02344 170.841 6.53125C171.116 6.0332 171.336 5.5293 171.5 5.01953C171.67 4.50391 171.755 3.99707 171.755 3.49902C171.755 3.12988 171.699 2.80762 171.588 2.53223C171.477 2.25684 171.327 2.02832 171.14 1.84668C170.952 1.66504 170.736 1.53027 170.489 1.44238C170.249 1.34863 169.997 1.30176 169.734 1.30176H169.303ZM182.427 10.082C182.427 10.5098 182.345 10.9111 182.181 11.2861C182.023 11.6611 181.803 11.9893 181.522 12.2705C181.241 12.5518 180.912 12.7744 180.537 12.9385C180.162 13.0967 179.761 13.1758 179.333 13.1758H178.797C178.369 13.1758 177.965 13.0967 177.584 12.9385C177.209 12.7744 176.881 12.5518 176.6 12.2705C176.319 11.9893 176.096 11.6611 175.932 11.2861C175.774 10.9111 175.695 10.5098 175.695 10.082V3.31445C175.695 2.88672 175.774 2.48535 175.932 2.11035C176.096 1.73535 176.319 1.40723 176.6 1.12598C176.881 0.844727 177.209 0.625 177.584 0.466797C177.965 0.302734 178.369 0.220703 178.797 0.220703H179.333C179.761 0.220703 180.162 0.302734 180.537 0.466797C180.912 0.625 181.241 0.844727 181.522 1.12598C181.803 1.40723 182.023 1.73535 182.181 2.11035C182.345 2.48535 182.427 2.88672 182.427 3.31445V10.082ZM181.293 3.31445C181.293 3.0332 181.241 2.77246 181.135 2.53223C181.03 2.28613 180.886 2.07227 180.704 1.89062C180.523 1.70898 180.309 1.56543 180.063 1.45996C179.823 1.35449 179.562 1.30176 179.281 1.30176H178.85C178.569 1.30176 178.305 1.35449 178.059 1.45996C177.819 1.56543 177.605 1.70898 177.417 1.89062C177.236 2.07227 177.092 2.28613 176.987 2.53223C176.881 2.77246 176.828 3.0332 176.828 3.31445V10.082C176.828 10.3633 176.881 10.627 176.987 10.873C177.092 11.1133 177.236 11.3271 177.417 11.5146C177.605 11.6963 177.819 11.8398 178.059 11.9453C178.305 12.0508 178.569 12.1035 178.85 12.1035H179.281C179.562 12.1035 179.823 12.0508 180.063 11.9453C180.309 11.8398 180.523 11.6963 180.704 11.5146C180.886 11.3271 181.03 11.1133 181.135 10.873C181.241 10.627 181.293 10.3633 181.293 10.082V3.31445ZM188.221 1.30176C187.94 1.30176 187.676 1.35449 187.43 1.45996C187.19 1.56543 186.979 1.70898 186.797 1.89062C186.616 2.07227 186.472 2.28613 186.367 2.53223C186.261 2.77246 186.208 3.0332 186.208 3.31445V3.82422L185.075 3.63965V3.31445C185.075 2.88672 185.154 2.48535 185.312 2.11035C185.476 1.73535 185.699 1.40723 185.98 1.12598C186.261 0.844727 186.589 0.625 186.964 0.466797C187.339 0.302734 187.741 0.220703 188.168 0.220703H188.705C189.132 0.220703 189.534 0.296875 189.909 0.449219C190.289 0.601562 190.621 0.821289 190.902 1.1084C191.183 1.39551 191.403 1.74121 191.561 2.14551C191.725 2.54395 191.807 2.99512 191.807 3.49902C191.807 3.99707 191.731 4.49805 191.579 5.00195C191.432 5.50586 191.236 6.00098 190.99 6.4873C190.749 6.97363 190.471 7.44531 190.155 7.90234C189.844 8.35938 189.525 8.79004 189.197 9.19434C188.429 10.1377 187.559 11.0459 186.586 11.9189H191.895V13H184.802V12.1035C185.898 11.2012 186.876 10.2666 187.738 9.2998C188.107 8.88379 188.467 8.44141 188.819 7.97266C189.17 7.50391 189.484 7.02344 189.759 6.53125C190.035 6.0332 190.254 5.5293 190.418 5.01953C190.588 4.50391 190.673 3.99707 190.673 3.49902C190.673 3.12988 190.618 2.80762 190.506 2.53223C190.395 2.25684 190.246 2.02832 190.058 1.84668C189.871 1.66504 189.654 1.53027 189.408 1.44238C189.167 1.34863 188.915 1.30176 188.652 1.30176H188.221ZM201.345 10.082C201.345 10.5098 201.263 10.9111 201.099 11.2861C200.941 11.6611 200.721 11.9893 200.44 12.2705C200.159 12.5518 199.831 12.7744 199.456 12.9385C199.081 13.0967 198.679 13.1758 198.252 13.1758H197.715C197.288 13.1758 196.883 13.0967 196.503 12.9385C196.128 12.7744 195.799 12.5518 195.518 12.2705C195.237 11.9893 195.014 11.6611 194.85 11.2861C194.692 10.9111 194.613 10.5098 194.613 10.082V3.31445C194.613 2.88672 194.692 2.48535 194.85 2.11035C195.014 1.73535 195.237 1.40723 195.518 1.12598C195.799 0.844727 196.128 0.625 196.503 0.466797C196.883 0.302734 197.288 0.220703 197.715 0.220703H198.252C198.679 0.220703 199.081 0.302734 199.456 0.466797C199.831 0.625 200.159 0.844727 200.44 1.12598C200.721 1.40723 200.941 1.73535 201.099 2.11035C201.263 2.48535 201.345 2.88672 201.345 3.31445V10.082ZM200.211 3.31445C200.211 3.0332 200.159 2.77246 200.053 2.53223C199.948 2.28613 199.804 2.07227 199.623 1.89062C199.441 1.70898 199.227 1.56543 198.981 1.45996C198.741 1.35449 198.48 1.30176 198.199 1.30176H197.768C197.487 1.30176 197.223 1.35449 196.977 1.45996C196.737 1.56543 196.523 1.70898 196.336 1.89062C196.154 2.07227 196.01 2.28613 195.905 2.53223C195.799 2.77246 195.747 3.0332 195.747 3.31445V10.082C195.747 10.3633 195.799 10.627 195.905 10.873C196.01 11.1133 196.154 11.3271 196.336 11.5146C196.523 11.6963 196.737 11.8398 196.977 11.9453C197.223 12.0508 197.487 12.1035 197.768 12.1035H198.199C198.48 12.1035 198.741 12.0508 198.981 11.9453C199.227 11.8398 199.441 11.6963 199.623 11.5146C199.804 11.3271 199.948 11.1133 200.053 10.873C200.159 10.627 200.211 10.3633 200.211 10.082V3.31445Z" fill="#333333"/>
</svg>
